<mxfile host="app.diagrams.net" modified="2021-05-26T22:52:26.515Z" agent="5.0 (Windows NT 10.0; Win64; x64) AppleWebKit/537.36 (KHTML, like Gecko) Chrome/90.0.4430.212 Safari/537.36" etag="SNYfuuZ1iOcGs61b_bvY" version="14.7.1" type="github">
  <diagram name="Page-1" id="55a83fd1-7818-8e21-69c5-c3457e3827bb">
    <mxGraphModel dx="2522" dy="715" grid="1" gridSize="10" guides="1" tooltips="1" connect="1" arrows="1" fold="1" page="1" pageScale="1" pageWidth="1100" pageHeight="850" background="none" math="0" shadow="0">
      <root>
        <mxCell id="0" />
        <mxCell id="1" parent="0" />
        <mxCell id="69ecfefc5c41e42c-18" style="edgeStyle=none;rounded=0;html=1;labelBackgroundColor=none;endArrow=none;strokeWidth=2;fontFamily=Verdana;fontSize=22" parent="1" source="69ecfefc5c41e42c-1" target="69ecfefc5c41e42c-3" edge="1">
          <mxGeometry relative="1" as="geometry" />
        </mxCell>
        <mxCell id="69ecfefc5c41e42c-1" value="" style="image;html=1;labelBackgroundColor=#ffffff;image=img/lib/clip_art/networking/Wireless_Router_128x128.png;rounded=1;shadow=0;comic=0;strokeWidth=2;fontSize=22" parent="1" vertex="1">
          <mxGeometry x="470" y="465" width="80" height="80" as="geometry" />
        </mxCell>
        <mxCell id="69ecfefc5c41e42c-2" value="Internet" style="image;html=1;labelBackgroundColor=#ffffff;image=img/lib/clip_art/networking/Cloud_128x128.png;rounded=1;shadow=0;comic=0;strokeWidth=2;fontSize=22;labelPosition=center;verticalLabelPosition=top;align=center;verticalAlign=bottom;" parent="1" vertex="1">
          <mxGeometry x="470" y="140" width="80" height="80" as="geometry" />
        </mxCell>
        <mxCell id="69ecfefc5c41e42c-19" style="edgeStyle=none;rounded=0;html=1;labelBackgroundColor=none;endArrow=none;strokeWidth=2;fontFamily=Verdana;fontSize=22" parent="1" source="69ecfefc5c41e42c-3" target="69ecfefc5c41e42c-2" edge="1">
          <mxGeometry relative="1" as="geometry" />
        </mxCell>
        <mxCell id="69ecfefc5c41e42c-3" value="Firewall" style="image;html=1;labelBackgroundColor=#ffffff;image=img/lib/clip_art/networking/Firewall_128x128.png;rounded=1;shadow=0;comic=0;strokeWidth=2;fontSize=22;labelPosition=right;verticalLabelPosition=middle;align=left;verticalAlign=middle;" parent="1" vertex="1">
          <mxGeometry x="470" y="290" width="80" height="80" as="geometry" />
        </mxCell>
        <mxCell id="69ecfefc5c41e42c-5" value="PC" style="image;html=1;labelBackgroundColor=#ffffff;image=img/lib/clip_art/computers/Monitor_Tower_128x128.png;rounded=1;shadow=0;comic=0;strokeWidth=2;fontSize=22" parent="1" vertex="1">
          <mxGeometry x="140" y="340" width="80" height="80" as="geometry" />
        </mxCell>
        <mxCell id="69ecfefc5c41e42c-6" value="Printer" style="image;html=1;labelBackgroundColor=#ffffff;image=img/lib/clip_art/computers/Printer_128x128.png;rounded=1;shadow=0;comic=0;strokeWidth=2;fontSize=22" parent="1" vertex="1">
          <mxGeometry x="310" y="590" width="80" height="80" as="geometry" />
        </mxCell>
        <mxCell id="69ecfefc5c41e42c-7" value="PC" style="image;html=1;labelBackgroundColor=#ffffff;image=img/lib/clip_art/computers/Workstation_128x128.png;rounded=1;shadow=0;comic=0;strokeWidth=2;fontSize=22" parent="1" vertex="1">
          <mxGeometry x="150" y="590" width="80" height="80" as="geometry" />
        </mxCell>
        <mxCell id="lUnysXxp7qkwqBRo1MWR-1" value="" style="image;html=1;image=img/lib/clip_art/computers/Server_128x128.png" vertex="1" parent="1">
          <mxGeometry x="310" y="480" width="80" height="80" as="geometry" />
        </mxCell>
        <mxCell id="lUnysXxp7qkwqBRo1MWR-2" value="" style="fontColor=#0066CC;verticalAlign=top;verticalLabelPosition=bottom;labelPosition=center;align=center;html=1;outlineConnect=0;fillColor=#CCCCCC;strokeColor=#6881B3;gradientColor=none;gradientDirection=north;strokeWidth=2;shape=mxgraph.networks.scanner;" vertex="1" parent="1">
          <mxGeometry x="300" y="370" width="100" height="75" as="geometry" />
        </mxCell>
        <mxCell id="lUnysXxp7qkwqBRo1MWR-3" style="edgeStyle=none;rounded=0;html=1;labelBackgroundColor=none;endArrow=none;strokeWidth=2;fontFamily=Verdana;fontSize=22;exitX=0.5;exitY=0;exitDx=0;exitDy=0;" edge="1" parent="1" source="lUnysXxp7qkwqBRo1MWR-1" target="lUnysXxp7qkwqBRo1MWR-2">
          <mxGeometry relative="1" as="geometry">
            <mxPoint x="340" y="495" as="sourcePoint" />
            <mxPoint x="310" y="450" as="targetPoint" />
          </mxGeometry>
        </mxCell>
        <mxCell id="lUnysXxp7qkwqBRo1MWR-4" style="edgeStyle=none;rounded=0;html=1;labelBackgroundColor=none;endArrow=none;strokeWidth=2;fontFamily=Verdana;fontSize=22;entryX=0.5;entryY=1;entryDx=0;entryDy=0;exitX=0.5;exitY=0;exitDx=0;exitDy=0;" edge="1" parent="1" source="69ecfefc5c41e42c-6" target="lUnysXxp7qkwqBRo1MWR-1">
          <mxGeometry relative="1" as="geometry">
            <mxPoint x="370" y="615" as="sourcePoint" />
            <mxPoint x="370" y="520" as="targetPoint" />
          </mxGeometry>
        </mxCell>
        <mxCell id="lUnysXxp7qkwqBRo1MWR-5" value="" style="image;html=1;image=img/lib/clip_art/networking/Switch_128x128.png" vertex="1" parent="1">
          <mxGeometry x="150" y="480" width="80" height="80" as="geometry" />
        </mxCell>
        <mxCell id="lUnysXxp7qkwqBRo1MWR-6" style="edgeStyle=none;rounded=0;html=1;labelBackgroundColor=none;endArrow=none;strokeWidth=2;fontFamily=Verdana;fontSize=22;entryX=0.6;entryY=1.05;entryDx=0;entryDy=0;entryPerimeter=0;" edge="1" parent="1" source="lUnysXxp7qkwqBRo1MWR-5" target="69ecfefc5c41e42c-5">
          <mxGeometry relative="1" as="geometry">
            <mxPoint x="189.5" y="395" as="sourcePoint" />
            <mxPoint x="189.5" y="300" as="targetPoint" />
          </mxGeometry>
        </mxCell>
        <mxCell id="lUnysXxp7qkwqBRo1MWR-7" style="edgeStyle=none;rounded=0;html=1;labelBackgroundColor=none;endArrow=none;strokeWidth=2;fontFamily=Verdana;fontSize=22;entryX=0.5;entryY=0;entryDx=0;entryDy=0;exitX=0.5;exitY=1;exitDx=0;exitDy=0;" edge="1" parent="1" source="lUnysXxp7qkwqBRo1MWR-5" target="69ecfefc5c41e42c-7">
          <mxGeometry relative="1" as="geometry">
            <mxPoint x="530" y="485" as="sourcePoint" />
            <mxPoint x="530" y="390" as="targetPoint" />
          </mxGeometry>
        </mxCell>
        <mxCell id="lUnysXxp7qkwqBRo1MWR-8" value="PC" style="image;html=1;labelBackgroundColor=#ffffff;image=img/lib/clip_art/computers/Workstation_128x128.png;rounded=1;shadow=0;comic=0;strokeWidth=2;fontSize=22" vertex="1" parent="1">
          <mxGeometry y="480" width="80" height="80" as="geometry" />
        </mxCell>
        <mxCell id="lUnysXxp7qkwqBRo1MWR-9" style="edgeStyle=none;rounded=0;html=1;labelBackgroundColor=none;endArrow=none;strokeWidth=2;fontFamily=Verdana;fontSize=22;exitX=1;exitY=0.5;exitDx=0;exitDy=0;entryX=0;entryY=0.5;entryDx=0;entryDy=0;" edge="1" parent="1" source="lUnysXxp7qkwqBRo1MWR-8" target="lUnysXxp7qkwqBRo1MWR-5">
          <mxGeometry relative="1" as="geometry">
            <mxPoint x="200" y="460" as="sourcePoint" />
            <mxPoint x="149" y="410" as="targetPoint" />
          </mxGeometry>
        </mxCell>
        <mxCell id="lUnysXxp7qkwqBRo1MWR-10" style="edgeStyle=none;rounded=0;html=1;labelBackgroundColor=none;endArrow=none;strokeWidth=2;fontFamily=Verdana;fontSize=22;exitX=0;exitY=0.5;exitDx=0;exitDy=0;" edge="1" parent="1" source="69ecfefc5c41e42c-1">
          <mxGeometry relative="1" as="geometry">
            <mxPoint x="520" y="475" as="sourcePoint" />
            <mxPoint x="400" y="520" as="targetPoint" />
          </mxGeometry>
        </mxCell>
        <mxCell id="lUnysXxp7qkwqBRo1MWR-11" style="edgeStyle=none;rounded=0;html=1;labelBackgroundColor=none;endArrow=none;strokeWidth=2;fontFamily=Verdana;fontSize=22;entryX=0;entryY=0.5;entryDx=0;entryDy=0;exitX=1;exitY=0.5;exitDx=0;exitDy=0;" edge="1" parent="1" source="lUnysXxp7qkwqBRo1MWR-5" target="lUnysXxp7qkwqBRo1MWR-1">
          <mxGeometry relative="1" as="geometry">
            <mxPoint x="530" y="485" as="sourcePoint" />
            <mxPoint x="530" y="390" as="targetPoint" />
          </mxGeometry>
        </mxCell>
      </root>
    </mxGraphModel>
  </diagram>
</mxfile>
